<svg width="45" height="45" viewBox="0 0 45 45" fill="none" xmlns="http://www.w3.org/2000/svg">
<g clip-path="url(#clip0_85:130)">
<path d="M35.4001 0H9.59997C4.29805 0 0 4.29805 0 9.59997V35.4001C0 40.702 4.29805 45.0001 9.59997 45.0001H35.4001C40.702 45.0001 45.0001 40.702 45.0001 35.4001V9.59997C45.0001 4.29805 40.702 0 35.4001 0Z" fill="#039BE5"/>
<path fill-rule="evenodd" clip-rule="evenodd" d="M30.2974 18.7385C24.0244 18.7385 24.0166 24.987 24.0166 25.0193C24.0166 25.0193 23.5878 31.2735 30.2974 31.2735C30.2974 31.2735 35.8916 31.593 35.8916 26.9208H33.019C33.019 26.9208 33.1134 28.6801 30.3917 28.6801C30.3917 28.6801 27.5192 28.8713 27.5192 25.8376H35.9879C35.9879 25.8376 36.9198 18.7385 30.2974 18.7385V18.7385ZM27.4867 23.6492C27.4867 23.6492 27.8365 21.1336 30.3598 21.1336C32.8923 21.1336 32.8506 23.6492 32.8506 23.6492H27.4867ZM20.3083 22.0408C20.3083 22.0408 22.7997 21.8593 22.7997 18.9297C22.7997 16.0077 20.7622 14.5751 18.1746 14.5751L9.6656 14.575V30.9315H18.1746C18.1746 30.9315 23.3721 31.092 23.3721 26.1002C23.3721 26.1002 23.5951 22.0407 20.3083 22.0407V22.0408ZM13.4154 17.48H18.1746C18.1746 17.48 19.3295 17.48 19.3295 19.1828C19.3295 20.8858 18.6526 21.1336 17.8799 21.1336H13.4154V17.48H13.4154ZM17.9366 28.0264H13.4154V23.6491H18.1746C18.1746 23.6491 19.9019 23.6341 19.8947 25.9019C19.8947 27.8126 18.613 28.0109 17.9366 28.0264ZM26.7779 15.5388V17.5516H33.5276V15.5388H26.7779Z" fill="#F1F2F2"/>
</g>
<defs>
<clipPath id="clip0_85:130">
<rect width="45" height="45" fill="white"/>
</clipPath>
</defs>
</svg>
