<svg width="25" height="25" viewBox="0 0 25 25" fill="none" xmlns="http://www.w3.org/2000/svg">
<g clip-path="url(#clip0_8:40)">
<path d="M19.6667 0H5.33332C2.38781 0 0 2.38781 0 5.33332V19.6667C0 22.6122 2.38781 25 5.33332 25H19.6667C22.6122 25 25 22.6122 25 19.6667V5.33332C25 2.38781 22.6122 0 19.6667 0Z" fill="#039BE5"/>
<path fill-rule="evenodd" clip-rule="evenodd" d="M16.8319 10.4103C13.3469 10.4103 13.3425 13.8816 13.3425 13.8996C13.3425 13.8996 13.1044 17.3741 16.8319 17.3741C16.8319 17.3741 19.9398 17.5516 19.9398 14.956H18.3439C18.3439 14.956 18.3963 15.9334 16.8843 15.9334C16.8843 15.9334 15.2884 16.0396 15.2884 14.3542H19.9933C19.9933 14.3542 20.511 10.4103 16.8319 10.4103V10.4103ZM15.2704 13.1384C15.2704 13.1384 15.4648 11.7409 16.8665 11.7409C18.2735 11.7409 18.2503 13.1384 18.2503 13.1384H15.2704ZM11.2824 12.2448C11.2824 12.2448 12.6665 12.144 12.6665 10.5165C12.6665 8.89312 11.5345 8.09724 10.097 8.09724L5.36978 8.09717V17.1841H10.097C10.097 17.1841 12.9845 17.2733 12.9845 14.5001C12.9845 14.5001 13.1084 12.2448 11.2824 12.2448V12.2448ZM7.45301 9.71108H10.097C10.097 9.71108 10.7386 9.71108 10.7386 10.6571C10.7386 11.6032 10.3626 11.7409 9.93328 11.7409H7.453V9.71108H7.45301ZM9.96476 15.5702H7.45301V13.1384H10.097C10.097 13.1384 11.0566 13.13 11.0526 14.3899C11.0526 15.4514 10.3406 15.5616 9.96476 15.5702ZM14.8766 8.63266V9.75084H18.6265V8.63266H14.8766Z" fill="#F1F2F2"/>
</g>
<defs>
<clipPath id="clip0_8:40">
<rect width="25" height="25" fill="white"/>
</clipPath>
</defs>
</svg>
