<svg width="50" height="50" viewBox="0 0 50 50" fill="none" xmlns="http://www.w3.org/2000/svg">
<path d="M25 4.16675C13.4938 4.16675 4.16667 13.4938 4.16667 25.0001C4.16667 36.5063 13.4938 45.8334 25 45.8334C36.5063 45.8334 45.8333 36.5063 45.8333 25.0001C45.8333 13.4938 36.5063 4.16675 25 4.16675Z" fill="url(#paint0_linear_85:141)"/>
<path d="M27.8198 30.522H33.2115L34.0583 25.0449H27.8198V22.0512C27.8198 19.7762 28.5635 17.7584 30.6917 17.7584H34.1115V12.9793C33.5104 12.898 32.2396 12.7209 29.8385 12.7209C24.824 12.7209 21.8844 15.3689 21.8844 21.4022V25.0459H16.7292V30.523H21.8833V45.5772C22.9042 45.7293 23.9385 45.8334 25 45.8334C25.9594 45.8334 26.8958 45.7459 27.8198 45.6209V30.522Z" fill="white"/>
<defs>
<linearGradient id="paint0_linear_85:141" x1="10.4094" y1="10.4095" x2="42.3073" y2="42.3074" gradientUnits="userSpaceOnUse">
<stop stop-color="#2AA4F4"/>
<stop offset="1" stop-color="#007AD9"/>
</linearGradient>
</defs>
</svg>
