<svg width="423" height="48" viewBox="0 0 423 48" fill="none" xmlns="http://www.w3.org/2000/svg">
<path d="M71.3379 11.116L72.2182 11.218L73.0541 11.374L73.8457 11.566L74.595 11.798L75.3041 12.08L75.9607 12.396L76.5811 12.762L77.1512 13.172L77.689 13.614L78.1785 14.104L78.6236 14.63L79.0245 15.206L79.383 15.826L79.7013 16.476L79.9752 17.182L80.2048 17.912L80.3982 18.702L80.5473 19.518L80.65 20.392L80.7124 21.294L80.7346 22.248V22.48L80.7265 22.698L80.7044 22.908L80.6419 23.31L80.5996 23.488L80.5473 23.666L80.4929 23.822L80.3438 24.116L80.2733 24.242L80.1746 24.366L80.0799 24.482L79.9752 24.576L79.8584 24.674L79.7436 24.746L79.6167 24.822L79.4777 24.87L79.3286 24.924L79.1816 24.968L79.0245 24.986L78.8532 25.008H60.9402V24.862H60.8999V28.536L60.908 29.028L60.9624 29.508L61.0349 29.964L61.1517 30.392L61.2907 30.802L61.47 31.19L61.6674 31.548L61.9151 31.89L62.175 32.208L62.4852 32.51L62.8215 32.782L63.1821 33.036L63.5809 33.268L64.016 33.478L64.4712 33.666L64.9688 33.836L65.4945 33.968L66.0565 34.098L66.6487 34.192L67.2691 34.264L67.9237 34.326L68.6126 34.356L69.3297 34.37H69.5956L69.8615 34.356H70.1112L70.3691 34.348L70.6108 34.34L70.8525 34.316L71.0962 34.308L71.5635 34.264L71.7831 34.246L72.0087 34.21L72.4297 34.148L72.6271 34.116L72.8386 34.076L73.4127 33.952L73.602 33.898L73.7813 33.852L73.9525 33.804L74.1197 33.742L74.2889 33.688L74.3835 33.656L74.4782 33.612L74.587 33.58L74.6897 33.532L74.8065 33.488L74.9234 33.434L75.0483 33.372L75.1752 33.318L75.5881 33.1L75.7492 33.014L75.8922 32.93L76.2347 32.742L76.3998 32.64L76.5811 32.532L76.7604 32.416L77.1411 32.168L77.3445 32.038L77.556 31.904L77.7655 31.756L78.0173 31.524L78.2731 31.316L78.39 31.222L78.4947 31.136L78.6115 31.052L78.7183 30.968L78.9076 30.82L79.095 30.696L79.1816 30.642L79.2662 30.602L79.3427 30.548L79.4857 30.486L79.5542 30.454L79.6167 30.432L79.667 30.414L79.7738 30.392H79.945L80.1565 30.414L80.2592 30.432L80.3539 30.454L80.4526 30.486L80.5332 30.516L80.6822 30.602L80.7567 30.656L80.8836 30.78L80.938 30.842L80.9904 30.918L81.073 31.084L81.1032 31.176L81.1254 31.284L81.1576 31.392L81.1717 31.494L81.1898 31.61V31.734L81.2019 31.872L81.1898 31.998L81.1797 32.136L81.1576 32.27L81.1395 32.394L81.0085 32.804L80.9461 32.93L80.8836 33.068L80.8111 33.206L80.7265 33.34L80.6319 33.478L80.5332 33.604L80.3217 33.876L80.0699 34.148L79.7959 34.424L79.4777 34.696L79.3065 34.83L79.1413 34.976L78.8452 35.186L78.539 35.396L78.2208 35.596L77.8924 35.798L77.556 35.976L77.1955 36.154L76.8269 36.31L76.4462 36.466L76.0554 36.614L75.6425 36.752L75.2195 36.876L74.7844 36.992L74.3433 37.108L73.886 37.202L72.9373 37.372L72.4398 37.434L71.9322 37.496L71.4145 37.536L70.8767 37.582L70.3368 37.604L69.7849 37.622H69.2129L68.2339 37.612L67.2912 37.56L66.3929 37.474L65.5388 37.35L64.723 37.202L63.9536 37.016L63.2345 36.792L62.5476 36.534L61.9151 36.248L61.3209 35.922L60.769 35.566L60.2533 35.168L59.7981 34.744L59.3771 34.286L58.9944 33.782L58.6681 33.256L58.3841 32.688L58.1283 32.092L57.9389 31.454L57.7818 30.788L57.665 30.088L57.6025 29.344L57.5804 28.568V19.144L57.6025 18.868L57.6207 18.618L57.6529 18.354L57.6972 18.092L57.7375 17.842L57.7999 17.588L57.8624 17.346L57.949 17.096L58.0336 16.856L58.1283 16.616L58.235 16.384L58.4646 15.92L58.6036 15.692L58.7426 15.468L58.8917 15.25L59.0488 15.04L59.22 14.832L59.3993 14.622L59.7759 14.22L59.9794 14.02L60.2533 13.76L60.8455 13.274L61.1598 13.056L61.4881 12.846L61.8285 12.646L62.1891 12.458L62.5476 12.28L62.9263 12.124L63.3171 11.964L63.7199 11.83L64.1328 11.7L64.5639 11.576L65.001 11.472L65.4542 11.374L65.9074 11.294L66.3848 11.232L66.8682 11.166L67.3537 11.116L67.8613 11.084L68.383 11.054L68.9087 11.04L69.4465 11.032L70.4094 11.054L71.3379 11.116ZM67.2288 14.328L66.415 14.46L65.6214 14.662L64.8519 14.912L64.1208 15.22L63.4158 15.576L62.7672 16.08L62.2193 16.602L61.754 17.168L61.3854 17.756L61.1195 18.376L60.9483 19.028L60.8999 19.71V21.642H77.3848L77.2056 19.68L76.698 18.012L75.8439 16.646L74.6353 15.584L73.0944 14.818L71.1909 14.368L68.953 14.212L68.0728 14.242L67.2288 14.328Z" fill="#131313"/>
<path d="M410.042 0.346C409.806 0.576 409.573 0.91 409.573 1.246C409.571 1.826 410.256 2.612 411.525 3.904C416.808 8.956 419.467 15.144 419.449 22.604C419.429 30.86 416.633 37.49 411.198 42.628C410.056 43.644 409.587 44.44 409.585 45.122C409.585 45.458 409.816 45.806 410.05 46.14C410.27 46.374 410.737 46.606 411.073 46.606C412.33 46.61 414.091 45.134 416.387 42.262C420.861 36.818 422.883 30.806 422.996 22.614C423.101 14.416 420.514 8.858 415.446 3.118C413.623 1.068 412.105 0.002 411.065 0C410.729 0 410.378 0.114 410.042 0.346Z" fill="#131313"/>
<path d="M28.621 13.15C28.621 12.016 29.3099 11.566 30.6836 11.566C31.3483 11.566 36.6842 11.566 37.363 11.566C38.5031 11.566 39.0731 12.584 39.0731 14.444C41.1357 12.28 43.3414 10.986 45.6357 10.986C47.5815 10.986 49.1043 11.566 50.1376 12.7C51.2817 13.832 51.745 15.46 51.745 17.284C51.745 18.532 51.1649 19.216 50.1376 19.216C49.4507 19.216 48.9955 18.756 48.7679 17.966C48.3086 16.37 48.081 15.576 47.9642 15.46C47.5089 14.67 46.5884 14.212 45.4483 14.212C44.1894 14.212 42.9325 14.67 41.8629 15.576C41.176 16.036 40.2555 17.052 39.0731 18.564C39.0731 19.594 39.0731 24.706 39.0731 33.906C42.8016 33.906 44.8783 33.906 45.2852 33.906C46.6609 33.906 47.3478 34.486 47.3478 35.504C47.3478 36.636 46.6609 37.212 45.2852 37.212C43.8168 37.212 32.003 37.212 30.5225 37.212C29.1507 37.212 28.4639 36.636 28.4639 35.62C28.4639 34.486 29.1507 34.022 30.5225 34.022C30.8629 34.022 32.5529 34.022 35.5965 34.022C35.5965 34.014 35.5965 33.964 35.5965 33.876C35.6005 33.876 35.6126 33.876 35.6388 33.876C35.6388 22.398 35.6388 16.022 35.6388 14.746C32.5529 14.746 30.8991 14.746 30.6836 14.746C29.3099 14.746 28.621 14.18 28.621 13.15Z" fill="#131313"/>
<path d="M394.115 24.088C392.131 23.584 400.279 14.026 385.796 2.58203C385.796 2.58203 387.698 8.57603 378.116 21.952C368.53 35.324 382.378 43.288 382.378 43.288C382.378 43.288 375.88 39.85 383.433 27.608C384.787 25.386 386.556 23.374 388.753 18.848C388.753 18.848 390.697 21.572 389.682 27.482C388.163 36.412 396.266 33.856 396.393 33.98C399.223 37.29 394.049 43.106 393.734 43.288C393.42 43.466 408.511 34.274 397.789 20.44C397.054 21.17 396.101 24.592 394.115 24.088Z" fill="#131313"/>
<path d="M1.9458 11.5975C2.20161 11.5975 3.42227 11.5975 5.65611 11.5975C5.65611 9.66547 5.65611 8.59546 5.65611 8.37746C5.65611 2.77146 8.55266 0.00146484 14.1947 0.00146484C16.4889 0.00146484 18.475 0.461465 19.9515 1.25946C21.8973 2.39146 22.9749 4.25147 22.9749 6.41547C22.9749 7.88146 22.3968 8.45747 21.3716 8.45747C20.6847 8.45747 19.9978 7.99746 19.6473 7.19946C19.1941 5.73146 18.7389 4.93346 18.5052 4.55546C17.8184 3.75746 16.4446 3.30546 14.4585 3.30546C10.992 3.30546 9.27981 5.00547 9.27981 8.45747C9.27981 8.65746 9.27981 9.69746 9.27981 11.5655C13.2862 11.5655 15.506 11.5655 15.9511 11.5655C17.4377 11.5655 18.1245 12.1315 18.1245 13.1495C18.1245 14.2815 17.4377 14.7455 15.9511 14.7455C15.506 14.7455 13.2862 14.7455 9.27981 14.7455C9.27981 27.3195 9.27981 34.2935 9.27981 35.6895C9.27981 36.9395 8.6997 37.6215 7.67241 37.6215C6.53031 37.6215 6.06904 36.9395 6.06904 35.6895C6.06904 34.2935 6.06904 27.3555 6.06904 14.7815C6.063 14.7815 2.14924 14.7775 1.9458 14.7775C0.686871 14.7775 0 14.2115 0 13.1935C0 12.0475 0.686871 11.5975 1.9458 11.5975Z" fill="#131313"/>
<path d="M366.36 0.351981C366.594 0.581981 366.828 0.915981 366.828 1.25198C366.83 1.83198 366.145 2.61798 364.876 3.90998C359.592 8.96198 356.935 15.15 356.952 22.61C356.972 30.866 359.768 37.496 365.202 42.634C366.344 43.65 366.814 44.446 366.816 45.128C366.816 45.464 366.584 45.812 366.35 46.146C366.131 46.38 365.665 46.612 365.327 46.612C364.07 46.616 362.31 45.14 360.013 42.268C355.54 36.824 353.517 30.812 353.404 22.62C353.3 14.422 355.886 8.86398 360.954 3.12398C362.777 1.07398 364.298 0.00798145 365.335 0.00598145C365.671 0.00598145 366.022 0.119981 366.36 0.351981Z" fill="#131313"/>
<path d="M100.297 11.116L101.178 11.218L102.014 11.374L102.803 11.566L103.554 11.798L104.263 12.08L104.918 12.396L105.539 12.762L106.109 13.172L106.648 13.614L107.138 14.104L107.583 14.63L107.982 15.206L108.342 15.826L108.661 16.476L108.935 17.182L109.164 17.912L109.358 18.702L109.505 19.518L109.609 20.392L109.672 21.294L109.694 22.248V22.48L109.684 22.698L109.662 22.908L109.599 23.31L109.559 23.488L109.505 23.666L109.45 23.822L109.303 24.116L109.231 24.242L109.132 24.366L109.037 24.482L108.935 24.576L108.818 24.674L108.701 24.746L108.576 24.822L108.437 24.87L108.288 24.924L108.139 24.968L107.982 24.986L107.813 25.008H89.8976V24.862H89.8573V28.536L89.8754 29.028L89.9218 29.508L90.0063 29.964L90.1091 30.392L90.2481 30.802L90.4294 31.19L90.6268 31.548L90.8725 31.89L91.1464 32.208L91.4446 32.51L91.7809 32.782L92.1395 33.036L92.5403 33.268L92.9754 33.478L93.4286 33.666L93.9282 33.836L94.4539 33.968L95.0139 34.098L95.6081 34.192L96.2265 34.264L96.8831 34.326L97.57 34.356L98.2891 34.37H98.555L98.8188 34.356H99.0706L99.3264 34.348L99.5702 34.34L99.8119 34.316L100.054 34.308L100.521 34.264L100.742 34.246L100.966 34.21L101.601 34.116L101.798 34.076L101.991 34.032L102.193 33.992L102.372 33.952L102.561 33.898L102.741 33.852L102.912 33.804L103.077 33.742L103.248 33.688L103.343 33.656L103.438 33.612L103.544 33.58L103.647 33.532L103.764 33.488L103.881 33.434L104.008 33.372L104.133 33.318L104.41 33.176L104.56 33.1L104.709 33.014L104.866 32.93L105.023 32.836L105.192 32.742L105.359 32.64L105.539 32.532L105.718 32.416L106.1 32.168L106.302 32.038L106.513 31.904L106.725 31.756L106.977 31.524L107.233 31.316L107.349 31.222L107.452 31.136L107.569 31.052L107.678 30.968L107.865 30.82L108.054 30.696L108.139 30.642L108.226 30.602L108.302 30.548L108.445 30.486L108.512 30.454L108.576 30.432L108.624 30.414L108.733 30.392H108.902L109.114 30.414L109.219 30.432L109.311 30.454L109.41 30.486L109.493 30.516L109.64 30.602L109.716 30.656L109.841 30.78L109.895 30.842L109.95 30.918L110.03 31.084L110.063 31.176L110.085 31.284L110.117 31.392L110.129 31.494L110.147 31.61V31.734L110.161 31.872L110.147 31.998L110.139 32.136L110.117 32.27L110.099 32.394L109.968 32.804L109.905 32.93L109.841 33.068L109.771 33.206L109.599 33.478L109.493 33.604L109.281 33.876L109.029 34.148L108.755 34.424L108.437 34.696L108.266 34.83L108.099 34.976L107.803 35.186L107.496 35.396L107.178 35.596L106.85 35.798L106.513 35.976L106.155 36.154L105.786 36.31L105.404 36.466L105.013 36.614L104.6 36.752L104.179 36.876L103.742 36.992L103.303 37.108L102.843 37.202L101.897 37.372L101.397 37.434L100.89 37.496L100.374 37.536L99.8441 37.582L98.7423 37.622H98.1723L97.1933 37.612L96.2506 37.56L95.3523 37.474L94.4982 37.35L93.6804 37.202L92.921 37.016L92.1939 36.792L91.507 36.534L90.8725 36.248L90.2803 35.922L89.7284 35.566L89.2208 35.168L88.7575 34.744L88.3345 34.286L87.9538 33.782L87.6255 33.256L87.3435 32.688L87.0997 32.092L86.8983 31.454L86.7412 30.788L86.6244 30.088L86.5619 29.344L86.5378 28.568V19.144L86.5619 18.868L86.58 18.618L86.6103 18.354L86.6546 18.092L86.6949 17.842L86.7593 17.588L86.8218 17.346L86.9064 17.096L86.993 16.856L87.0877 16.616L87.1944 16.384L87.424 15.92L87.563 15.692L87.702 15.468L87.8511 15.25L88.0082 15.04L88.1774 14.832L88.3587 14.622L88.7353 14.22L88.9368 14.02L89.2107 13.76L89.8049 13.274L90.1191 13.056L90.4475 12.846L90.7879 12.646L91.1464 12.458L91.507 12.28L91.8837 12.124L92.2744 11.964L92.6793 11.83L93.0922 11.7L93.5233 11.576L93.9584 11.472L94.4136 11.374L94.8668 11.294L95.3422 11.232L95.8276 11.166L96.3131 11.116L96.8207 11.084L97.3424 11.054L97.8661 11.04L98.4059 11.032L99.3667 11.054L100.297 11.116ZM96.1862 14.328L95.3744 14.46L94.5788 14.662L93.8113 14.912L93.0781 15.22L92.3731 15.576L91.6943 16.08L91.1243 16.602L90.657 17.168L90.3125 17.756L90.0567 18.376L89.9077 19.028L89.8573 19.71V21.642H106.342L106.163 19.68L105.655 18.012L104.801 16.646L103.595 15.584L102.054 14.818L100.148 14.368L97.9124 14.212L97.0322 14.242L96.1862 14.328Z" fill="#131313"/>
<path d="M319.846 10.862L319.909 10.876L320.036 10.916L320.098 10.946L320.153 10.978L320.215 11.008L320.277 11.054L320.332 11.094L320.394 11.148L320.449 11.196L320.511 11.25L320.614 11.374L320.723 11.522L320.777 11.606L320.825 11.682L320.87 11.776L320.924 11.86L320.934 11.946L320.974 12.11L321.005 12.204L321.027 12.288L321.059 12.374L321.081 12.458L321.113 12.544L321.144 12.636L321.238 12.886L321.27 12.98L321.333 13.15L321.355 13.234L321.387 13.32L321.428 13.484L321.464 13.56L321.472 13.644L321.494 13.716L322.002 13.476L322.995 13.016L323.47 12.802L323.943 12.606L324.401 12.414L324.854 12.236L325.299 12.07L325.73 11.924L326.153 11.776L326.566 11.652L326.965 11.522L327.37 11.42L328.129 11.232L328.502 11.156L328.848 11.094L329.199 11.04L329.535 11.008L329.863 10.978L330.192 10.956H330.496L331.439 10.978L332.325 11.032L333.173 11.124L333.973 11.25L334.736 11.42L335.455 11.62L336.12 11.86L336.752 12.132L337.336 12.436L337.876 12.784L338.37 13.172L338.823 13.582L339.238 14.032L339.607 14.524L339.933 15.05L340.213 15.608L340.455 16.192L340.644 16.824L340.791 17.484L340.908 18.176L340.97 18.904L340.994 19.666V29.174L340.98 29.554L340.962 29.91L340.93 30.268L340.886 30.61L340.831 30.958L340.761 31.284L340.674 31.61L340.579 31.926L340.473 32.23L340.36 32.524L340.229 32.818L340.082 33.1L339.925 33.384L339.754 33.656L339.574 33.92L339.385 34.17L339.184 34.424L338.964 34.664L338.73 34.906L338.497 35.138L338.245 35.356L337.979 35.574L337.737 35.766L337.494 35.932L337.23 36.1L336.964 36.256L336.69 36.404L336.416 36.542L336.12 36.676L335.824 36.792L335.518 36.908L334.885 37.118L334.206 37.288L333.87 37.358L333.509 37.426L333.151 37.474L332.41 37.56L332.029 37.59L331.638 37.612L331.247 37.622H330.361L329.872 37.604L329.4 37.568L328.933 37.536L328.47 37.488L328.012 37.426L327.571 37.35L326.683 37.162L326.248 37.046L325.825 36.93L325.402 36.792L324.989 36.644L324.58 36.48L324.177 36.31L323.776 36.124L323.385 35.922L322.995 35.712L322.614 35.494L322.231 35.262L321.863 35.008L321.494 34.744V45.712L321.482 45.922L321.464 46.122L321.442 46.3L321.409 46.48L321.365 46.648L321.325 46.804L321.27 46.96L321.216 47.1L321.144 47.238L321.081 47.348L320.997 47.464L320.924 47.558L320.825 47.656L320.731 47.736L320.628 47.812L320.519 47.866L320.402 47.916L320.286 47.96L320.161 47.982L320.026 48H319.748L319.621 47.992L319.496 47.96L319.379 47.928L319.262 47.884L319.051 47.76L318.956 47.688L318.863 47.604L318.777 47.496L318.7 47.394L318.63 47.278L318.565 47.152L318.513 47.014L318.459 46.858L318.418 46.702L318.372 46.532L318.342 46.346L318.324 46.154L318.301 45.944L318.291 45.734V13.128L318.301 12.918L318.31 12.73L318.332 12.544L318.356 12.364L318.386 12.196L318.426 12.04L318.473 11.892L318.521 11.744L318.63 11.49L318.692 11.388L318.769 11.282L318.839 11.188L318.926 11.116L319.021 11.04L319.105 10.978L319.208 10.924L319.419 10.862L319.536 10.84H319.73L319.792 10.852L319.846 10.862ZM328.903 14.346L328.425 14.376L327.962 14.42L327.519 14.484L327.096 14.546L326.683 14.63L326.292 14.734L325.909 14.848L325.543 14.978L325.192 15.122L324.886 15.26L324.568 15.428L324.254 15.616L323.925 15.834L323.597 16.088L323.261 16.36L322.91 16.664L322.55 16.99L322.181 17.338L321.786 17.716L321.377 18.114V31.19H321.494V31.146L322.443 31.704L323.363 32.208L324.254 32.672L325.106 33.068L325.934 33.416L326.737 33.696L327.505 33.938L328.236 34.13L328.943 34.264L329.62 34.34L330.266 34.37L330.824 34.356L331.364 34.34L331.884 34.286L332.387 34.224L332.877 34.148L333.34 34.044L333.783 33.928L334.206 33.782L334.611 33.626L334.988 33.434L335.338 33.238L335.761 32.974L336.13 32.688L336.456 32.386L336.744 32.06L336.986 31.712L337.189 31.346L337.347 30.958L337.471 30.562L337.566 30.128L337.61 29.678L337.635 29.214V19.71L337.61 19.162L337.558 18.648L337.453 18.176L337.314 17.726L337.127 17.306L336.901 16.906L336.627 16.54L336.321 16.204L335.963 15.902L335.558 15.608L335.119 15.352L334.758 15.174L334.377 15.01L333.973 14.872L333.552 14.746L333.096 14.63L332.621 14.536L332.127 14.46L331.606 14.398L331.066 14.358L330.51 14.336L329.926 14.328L329.408 14.336L328.903 14.346Z" fill="#131313"/>
<path d="M135.642 3.52593C137.934 5.23793 139.119 7.66394 139.119 10.6119C139.119 11.9759 138.549 12.6599 137.394 12.6599C136.591 12.6599 136.021 11.9759 135.682 10.6119C135.451 9.47994 134.995 8.45793 134.425 7.38793C133.388 5.57193 131.182 4.74193 127.746 4.74193C124.733 4.74193 122.67 5.42593 121.413 6.89593C120.263 8.26193 119.576 10.3479 119.576 13.4119C119.576 14.6079 119.576 24.1259 119.576 25.3119C119.576 28.4199 120.263 30.5799 121.52 31.9439C122.896 33.4239 124.996 34.2099 127.98 34.2099C132.482 34.2099 135.112 32.6259 135.682 29.5219C135.904 28.3759 136.021 27.8099 136.021 27.6939C136.254 27.0119 136.708 26.6759 137.394 26.6759C138.549 26.6759 139.119 27.3599 139.119 28.7239C139.119 31.5999 137.964 33.7599 135.525 35.4719C133.581 36.7199 131.138 37.4039 127.935 37.4039C124.239 37.4039 121.373 36.6039 119.27 34.8919C116.827 33.3079 115.803 30.5799 115.803 27.0119C115.803 18.4299 115.803 13.6539 115.803 12.6999C115.803 5.15193 119.693 1.48193 127.786 1.48193C131.021 1.48193 133.549 2.16393 135.642 3.52593Z" fill="#131313"/>
<path d="M301.309 13.872C302.225 12.73 303.029 12.048 303.833 11.714C304.624 11.264 305.779 11.032 307.068 11.032C310.998 11.032 313.058 12.962 313.058 16.748C313.058 18.608 313.058 33.456 313.058 35.316C313.058 36.908 312.488 37.59 311.348 37.59C310.194 37.59 309.739 36.908 309.739 35.316C309.739 33.572 309.739 19.666 309.739 17.926C309.739 15.544 308.715 14.252 306.729 14.252C305.239 14.252 303.716 15.156 302.459 16.906C302.459 18.756 302.459 33.612 302.459 35.472C302.459 37.056 301.879 37.738 300.85 37.738C299.818 37.738 299.246 37.056 299.246 35.472C299.246 33.75 299.246 20.022 299.246 18.302C299.246 15.648 298.106 14.398 295.999 14.398C294.638 14.398 293.336 15.312 291.967 17.052C291.967 18.904 291.967 33.656 291.967 35.504C291.967 37.1 291.391 37.782 290.24 37.782C289.1 37.782 288.647 37.1 288.647 35.504C288.647 33.224 288.647 15.01 288.647 12.73C288.647 11.598 289.1 11.148 290.021 11.148C290.474 11.148 290.927 11.482 291.161 12.164C291.391 12.468 291.499 13.034 291.499 13.716C292.577 12.584 293.264 11.9 293.56 11.67C294.247 11.218 295.163 10.986 296.467 10.986C298.296 10.986 299.933 11.9 301.309 13.872Z" fill="#131313"/>
<path d="M158.736 11.0941L159.948 11.2641L161.088 11.4901L162.126 11.7981L163.087 12.1641L163.955 12.6061L164.726 13.1101L165.415 13.6841L166.003 14.3141L166.511 15.0281L166.924 15.7941L167.242 16.6321L167.476 17.5481L167.611 18.5101L167.655 19.5501V28.9561L167.611 29.9961L167.476 30.9581L167.252 31.8721L166.938 32.7121L166.533 33.4781L166.048 34.1781L165.464 34.8201L164.799 35.3961L164.039 35.9001L163.195 36.3421L162.253 36.7121L161.227 37.0161L160.118 37.246L158.915 37.4121L157.626 37.5201L156.25 37.5501L154.792 37.5361L153.426 37.4561L152.159 37.2961L150.995 37.0781L149.931 36.7841L148.956 36.4181L148.08 35.9841L147.299 35.4801L146.612 34.9061L146.01 34.2641L145.512 33.5501L145.097 32.7741L144.783 31.9261L144.559 30.9981L144.424 30.0121L144.38 28.9561V19.5501L144.424 18.5101L144.559 17.5481L144.793 16.6321L145.111 15.7941L145.52 15.0281L146.028 14.3141L146.62 13.6841L147.309 13.1101L148.08 12.6061L148.948 12.1641L149.899 11.7981L150.947 11.4901L152.087 11.2641L153.299 11.0941L154.613 10.9861L156.019 10.9561L157.422 10.9861L158.736 11.0941ZM153.346 14.3281L152.284 14.5141L151.337 14.7781L150.487 15.1121L149.752 15.5321L149.128 16.0141L148.62 16.5841L148.215 17.2121L147.933 17.9121L147.752 18.7021L147.7 19.5501V28.9561L147.752 29.8041L147.933 30.5801L148.215 31.2921L148.628 31.9261L149.15 32.4801L149.782 32.9601L150.534 33.3621L151.4 33.6961L152.383 33.9381L153.481 34.1161L154.697 34.2001L156.019 34.2101L157.316 34.2001L158.502 34.1161L159.588 33.9601L160.551 33.7201L161.407 33.4021L162.148 33.0061L162.782 32.5321L163.298 31.9761L163.703 31.3381L163.985 30.6241L164.166 29.8261L164.219 28.9561V19.5501L164.166 18.7021L163.985 17.9121L163.703 17.2121L163.29 16.5841L162.76 16.0141L162.126 15.5321L161.366 15.1121L160.486 14.7781L159.485 14.5141L158.375 14.3281L157.136 14.2121L155.785 14.1801L154.518 14.2121L153.346 14.3281Z" fill="#131313"/>
<path d="M272.444 10.746L272.835 10.768L273.204 10.8L273.562 10.822L273.913 10.862L274.259 10.892L274.602 10.946L274.928 10.986L275.242 11.054L275.548 11.102L275.844 11.178L276.14 11.24L276.414 11.312L276.702 11.396L276.968 11.482L277.22 11.566L277.476 11.66L277.718 11.768L277.961 11.86L278.193 11.976L278.415 12.08L278.626 12.196L278.836 12.32L279.069 12.49L279.291 12.668L279.5 12.846L279.704 13.048L279.897 13.244L280.084 13.466L280.264 13.684L280.435 13.916L280.592 14.158L280.741 14.408L280.876 14.662L281.015 14.924L281.249 15.492L281.351 15.786L281.446 16.08L281.531 16.392L281.607 16.708L281.67 17.034L281.724 17.368L281.764 17.716L281.805 18.074L281.829 18.43L281.851 18.796V30.998L281.859 31.16V31.316L281.881 31.61L281.903 31.882L281.921 32.02L281.944 32.144L281.968 32.26L281.998 32.386L282.016 32.502L282.085 32.712L282.125 32.818L282.25 33.1L282.294 33.184L282.344 33.268L282.399 33.34L282.524 33.488L282.663 33.626L282.685 33.634L282.717 33.656L282.735 33.674L282.78 33.688L282.812 33.71L282.896 33.75L282.947 33.782L283.053 33.822L283.118 33.852L283.18 33.876L283.404 33.968L283.656 34.068L283.75 34.098L283.845 34.138L283.944 34.17L284.038 34.21L284.141 34.254L284.258 34.294L284.32 34.316L284.451 34.38L284.5 34.424L284.554 34.456L284.663 34.536L284.703 34.588L284.743 34.634L284.788 34.682L284.82 34.744L284.85 34.798L284.913 34.924L284.937 35L284.959 35.062L284.977 35.146L284.999 35.218L285.007 35.302L285.029 35.388L285.04 35.48V35.574L285.054 35.672V36.092L285.029 36.194L285.021 36.28L284.999 36.372L284.977 36.458L284.945 36.542L284.913 36.614L284.872 36.69L284.828 36.752L284.725 36.876L284.671 36.93L284.608 36.984L284.383 37.108L284.218 37.172L284.123 37.194L284.016 37.212L283.805 37.234L283.688 37.246H283.476L283.436 37.234H283.404L283.36 37.224H283.319L283.275 37.212L283.064 37.172L283.013 37.148L282.947 37.14L282.884 37.118L282.82 37.108L282.6 37.046L282.516 37.024L282.443 37.002L282.359 36.984L282.264 36.962L282.177 36.93L282.085 36.908L281.786 36.806L281.647 36.752L281.513 36.712L281.384 36.658L281.132 36.574L281.015 36.534L280.898 36.498L280.795 36.458L280.697 36.426L280.592 36.396L280.507 36.364L280.413 36.332L280.328 36.31L280.256 36.28L280.179 36.256L280.054 36.216L279.897 36.154L279.851 36.14L279.821 36.124L279.788 36.11L279.716 36.1L279.649 36.092L279.577 36.07L279.514 36.048L279.452 36.016L279.398 35.976L279.335 35.932L279.281 35.892L279.226 35.838L279.178 35.776L279.124 35.722L279.079 35.65L279.039 35.588L278.985 35.504L278.944 35.428L278.912 35.348L278.868 35.262L278.827 35.168L278.765 34.976L278.638 34.558L278.602 34.442L278.141 34.758L277.695 35.052L277.484 35.2L277.085 35.45L276.892 35.574L276.531 35.806L276.195 36.016L276.038 36.11L275.889 36.194L275.615 36.364L275.476 36.436L275.359 36.512L275.023 36.676L274.928 36.72L274.759 36.806L274.672 36.824L274.537 36.89L274.398 36.93L274.102 37.032L273.627 37.162L273.469 37.194L273.298 37.234L273.131 37.264L272.773 37.328L272.593 37.35L272.414 37.38L271.842 37.444L271.641 37.456L271.439 37.474L271.236 37.488L271.024 37.496L270.827 37.506H269.844L269.515 37.496L269.197 37.488L268.563 37.444L267.952 37.38L267.656 37.34L267.36 37.288L266.79 37.18L266.242 37.056L265.976 36.984L265.71 36.9L265.455 36.814L265.203 36.72L264.719 36.534L264.486 36.418L264.252 36.31L264.031 36.194L263.807 36.07L263.595 35.944L263.384 35.806L263.142 35.642L262.909 35.472L262.467 35.092L262.266 34.906L262.073 34.704L261.883 34.496L261.714 34.286L261.547 34.068L261.39 33.836L261.251 33.604L261.112 33.362L260.985 33.122L260.87 32.868L260.765 32.618L260.671 32.354L260.502 31.81L260.437 31.534L260.385 31.252L260.298 30.664L260.258 30.058V29.428L260.276 29.12L260.298 28.808L260.344 28.514L260.447 27.926L260.594 27.36L260.689 27.088L260.9 26.56L261.031 26.298L261.156 26.048L261.452 25.566L261.609 25.334L261.781 25.112L261.96 24.892L262.159 24.684L262.351 24.482L262.562 24.286L262.782 24.094L263.249 23.738L263.501 23.572L263.946 23.256L264.18 23.108L264.665 22.836L265.173 22.582L265.437 22.472L265.962 22.258L266.242 22.164L266.812 21.998L267.094 21.922L267.39 21.852L267.688 21.788L267.985 21.736L268.289 21.682L268.595 21.642L268.913 21.61L269.219 21.58L269.548 21.556L269.866 21.534L270.194 21.526H270.797L271.07 21.534L271.352 21.544L271.923 21.588L272.211 21.62L272.507 21.65L272.805 21.69L273.109 21.744L273.405 21.788L273.711 21.852L274.017 21.9L274.336 21.968L274.968 22.114L275.953 22.364L276.281 22.458L276.626 22.552L276.968 22.658L277.313 22.76L277.663 22.876L278.024 22.992L278.382 23.118V19.1L278.374 18.868L278.36 18.648L278.342 18.43L278.31 18.208L278.265 18.012L278.225 17.798L278.163 17.6L278.1 17.41L278.024 17.222L277.937 17.044L277.845 16.864L277.633 16.53L277.506 16.36L277.381 16.214L277.242 16.058L276.946 15.786L276.775 15.648L276.414 15.398L276.227 15.282L276.024 15.174L275.814 15.072L275.593 14.964L275.445 14.902L275.125 14.778L274.452 14.568L273.913 14.444L273.719 14.408L273.54 14.376L273.343 14.346L273.149 14.314L272.962 14.296L272.561 14.252L272.35 14.23L272.148 14.22L271.937 14.198L271.725 14.188H271.516L271.304 14.18H270.351L269.852 14.198L269.368 14.22L268.913 14.264L268.478 14.314L268.055 14.376L267.664 14.444L267.284 14.524L266.923 14.622L266.587 14.734L266.272 14.848L265.962 14.978L265.68 15.122L265.414 15.268L265.173 15.438L264.947 15.608L264.738 15.794L264.548 15.996L264.377 16.214L264.22 16.436L264.095 16.664L263.968 16.918L263.869 17.182L263.789 17.454L263.726 17.734L263.704 17.872L263.672 17.998L263.628 18.23L263.587 18.44L263.547 18.626L263.523 18.712L263.511 18.796L263.493 18.868L263.479 18.944L263.461 19.006L263.448 19.068L263.43 19.176L263.406 19.26V19.3L263.398 19.332V19.362L263.384 19.384V19.438L263.354 19.51L263.289 19.634L263.259 19.688L263.172 19.796L263.142 19.844L263.088 19.888L263.048 19.928L262.993 19.974L262.953 20.004L262.899 20.036L262.836 20.068L262.782 20.098L262.719 20.116L262.665 20.138L262.602 20.16L262.532 20.184L262.467 20.192L262.391 20.214L262.32 20.224H262.244L262.171 20.232H261.875L261.75 20.224L261.493 20.184L261.376 20.16L261.062 20.036L260.963 19.974L260.87 19.92L260.784 19.844L260.703 19.782L260.554 19.616L260.491 19.518L260.385 19.332L260.33 19.216L260.298 19.1L260.258 18.984L260.228 18.858L260.203 18.734L260.195 18.596L260.181 18.448V18.104L260.195 17.896L260.203 17.694L260.236 17.494L260.258 17.298L260.344 16.896L260.447 16.5L260.51 16.298L260.572 16.112L260.649 15.91L260.735 15.724L260.828 15.522L261.017 15.144L261.368 14.576L261.493 14.398L261.634 14.212L262.073 13.676L262.244 13.498L262.433 13.274L262.876 12.878L263.12 12.69L263.65 12.334L263.938 12.174L264.23 12.016L264.548 11.87L264.866 11.732L265.203 11.606L265.563 11.482L265.922 11.374L266.305 11.272L266.695 11.178L267.094 11.094L267.507 11.018L267.93 10.946L268.821 10.84L269.282 10.8L269.759 10.768L270.243 10.746L270.742 10.736L271.25 10.728H271.649L272.053 10.736L272.444 10.746ZM267.594 25.366L266.218 25.848L265.15 26.538L264.377 27.422L263.914 28.5L263.767 29.786L263.807 30.454L263.938 31.084L264.157 31.68L264.462 32.23L264.852 32.712L265.352 33.122L265.944 33.456L266.452 33.728L267.01 33.96L267.612 34.148L268.259 34.294L268.945 34.402L269.673 34.464L270.446 34.486L271.125 34.464L271.775 34.424L272.414 34.34L273.032 34.21L273.639 34.054L274.241 33.836L274.829 33.572L275.234 33.34L275.679 33.046L276.173 32.72L276.702 32.354L277.272 31.944L277.867 31.502L278.491 31.034V26.226L277.411 25.9L276.334 25.628L275.266 25.396L274.219 25.218L273.196 25.08L272.203 25L271.25 24.978L269.274 25.072L267.594 25.366Z" fill="#131313"/>
<path d="M194.741 0.076L194.866 0.116L194.983 0.178L195.092 0.24L195.194 0.316L195.289 0.402L195.46 0.588L195.537 0.704L195.599 0.83L195.662 0.968L195.716 1.102L195.797 1.418L195.859 1.776L195.881 2.172L195.895 2.382V36.058L195.881 36.216L195.873 36.362L195.859 36.5L195.797 36.75L195.764 36.866L195.716 36.974L195.672 37.076L195.545 37.268L195.398 37.414L195.311 37.486L195.227 37.54L195.124 37.594L195.029 37.642L194.92 37.686L194.804 37.718L194.552 37.758L194.423 37.772H194.193L193.937 37.74L193.851 37.718L193.78 37.686L193.704 37.664L193.631 37.624L193.569 37.594L193.506 37.548L193.444 37.496L193.335 37.392L193.281 37.33L193.156 37.108L193.124 37.026L193.093 36.928L193.069 36.834L193.039 36.742L193.029 36.638V36.478L193.021 36.394V36.322L193.007 36.238V36.166L192.999 36.082V35.996L192.985 35.912L192.977 35.818L192.967 35.734V35.64L192.944 35.452V35.346L192.936 35.252L192.922 35.136V34.918L192.912 34.802V34.546L192.638 34.716L192.382 34.886L192.123 35.05L191.633 35.346L191.414 35.492L191.18 35.63L190.757 35.88L190.555 35.996L190.366 36.112L190.177 36.216L189.669 36.5L189.522 36.572L189.373 36.656L189.099 36.782L188.865 36.888L188.749 36.928L188.577 36.996L188.398 37.058L188.219 37.108L187.842 37.214L187.236 37.338L187.024 37.384L186.601 37.446L186.158 37.508L185.937 37.53L185.475 37.57L185.242 37.58L184.998 37.594L184.764 37.602L184.523 37.61H183.602L183.179 37.602L182.78 37.58L182.375 37.548L181.985 37.518L181.594 37.464L181.225 37.414L180.484 37.286L179.787 37.12L179.439 37.026L179.11 36.928L178.782 36.818L178.149 36.586L177.843 36.446L177.547 36.314L177.259 36.166L176.977 36.006L176.701 35.85L176.423 35.68L176.141 35.484L175.593 35.042L175.346 34.81L175.104 34.57L174.874 34.316L174.659 34.056L174.461 33.78L174.268 33.508L173.932 32.924L173.783 32.616L173.658 32.304L173.531 31.978L173.424 31.652L173.329 31.304L173.257 30.948L173.19 30.59L173.14 30.226L173.096 29.846L173.078 29.458V19.048L173.096 18.66L173.14 18.294L173.18 17.938L173.243 17.582L173.329 17.234L173.414 16.898L173.517 16.574L173.633 16.256L173.76 15.954L173.907 15.65L174.056 15.356L174.228 15.07L174.415 14.798L174.608 14.536L174.82 14.272L175.031 14.032L175.265 13.79L175.507 13.558L176.032 13.122L176.321 12.92L176.572 12.752L176.828 12.594L177.102 12.438L177.39 12.292L177.672 12.154L177.968 12.016L178.581 11.788L178.899 11.672L179.555 11.48L180.228 11.314L180.579 11.252L180.937 11.19L181.298 11.136L181.666 11.084L182.408 11.02L182.788 10.998L183.179 10.99H184.088L184.595 11.012L184.837 11.02L185.093 11.03L185.326 11.052L185.568 11.074L185.79 11.092L186.023 11.124L186.466 11.19L186.678 11.222L187.101 11.302L187.302 11.346L187.492 11.386L188.062 11.546L188.233 11.61L188.412 11.672L188.577 11.734L188.759 11.796L188.928 11.872L189.109 11.944L189.288 12.028L189.476 12.114L189.836 12.3L190.406 12.618L190.6 12.728L191.17 13.108L191.571 13.38L191.764 13.528L191.961 13.674L192.163 13.834L192.562 14.17V2.382L192.576 2.172L192.594 1.776L192.662 1.418L192.693 1.262L192.743 1.102L192.787 0.968L192.85 0.83L192.912 0.704L192.985 0.588L193.061 0.496L193.146 0.402L193.232 0.316L193.335 0.24L193.43 0.178L193.537 0.116L193.653 0.076L193.905 0.014L194.032 0H194.328L194.467 0.014L194.741 0.076ZM183.264 14.464L182.734 14.512L182.218 14.566L181.711 14.652L181.235 14.758L180.768 14.87L180.337 15.016L179.922 15.178L179.531 15.364L179.173 15.566L178.76 15.86L178.369 16.172L178.023 16.51L177.712 16.868L177.438 17.234L177.209 17.63L177.007 18.05L176.86 18.492L176.752 18.954L176.679 19.428L176.657 19.932V28.976L176.679 29.498L176.744 29.994L176.836 30.466L176.985 30.916L177.164 31.336L177.39 31.738L177.664 32.112L177.978 32.46L178.329 32.786L178.728 33.066L179.173 33.342L179.564 33.522L179.968 33.686L180.389 33.834L180.835 33.98L181.288 34.106L181.773 34.212L182.273 34.306L182.798 34.382L183.336 34.432L183.898 34.462L184.478 34.476L185.407 34.454L185.866 34.422L186.305 34.382L187.173 34.252L187.586 34.172L187.989 34.066L188.38 33.95L188.749 33.824L189.099 33.678L189.391 33.476L189.701 33.266L190.016 33.048L190.334 32.808L190.662 32.566L190.999 32.304L191.349 32.032L191.696 31.746L192.054 31.442L192.429 31.126L192.795 30.8V17.612L192.364 17.304L191.943 17.024L191.538 16.738L191.14 16.476L190.757 16.234L190.398 16.016L190.048 15.806L189.72 15.628L189.413 15.472L189.131 15.334L188.865 15.226L188.485 15.084L188.102 14.954L187.711 14.838L187.312 14.736L186.912 14.652L186.499 14.588L186.076 14.526L185.663 14.482L185.228 14.45L184.362 14.432L183.814 14.442L183.264 14.464Z" fill="#131313"/>
<path d="M251.284 3.52593C253.578 5.23793 254.761 7.66394 254.761 10.6119C254.761 11.9759 254.191 12.6599 253.041 12.6599C252.245 12.6599 251.675 11.9759 251.328 10.6119C251.095 9.47994 250.642 8.45793 250.072 7.38793C249.034 5.57193 246.823 4.74193 243.392 4.74193C240.377 4.74193 238.316 5.42593 237.057 6.89593C235.917 8.26193 235.23 10.3479 235.23 13.4119C235.23 14.6079 235.23 24.1259 235.23 25.3119C235.23 28.4199 235.917 30.5799 237.174 31.9439C238.55 33.4239 240.643 34.2099 243.62 34.2099C248.126 34.2099 250.758 32.6259 251.328 29.5219C251.558 28.3759 251.675 27.8099 251.675 27.6939C251.899 27.0119 252.362 26.6759 253.041 26.6759C254.191 26.6759 254.761 27.3599 254.761 28.7239C254.761 31.5999 253.619 33.7599 251.179 35.4719C249.222 36.7199 246.782 37.4039 243.58 37.4039C239.879 37.4039 237.017 36.6039 234.924 34.8919C232.59 33.3079 231.447 30.5799 231.447 27.0119C231.447 18.4299 231.447 13.6539 231.447 12.6999C231.447 5.15193 235.377 1.48193 243.432 1.48193C246.675 1.48193 249.191 2.16393 251.284 3.52593Z" fill="#131313"/>
<path d="M215.942 11.116L216.818 11.218L217.654 11.374L218.449 11.566L219.199 11.798L219.904 12.08L220.574 12.396L221.185 12.762L221.763 13.172L222.295 13.614L222.778 14.104L223.223 14.63L223.636 15.206L223.997 15.826L224.315 16.476L224.589 17.182L224.818 17.912L225.012 18.702L225.159 19.518L225.264 20.392L225.326 21.294L225.348 22.248L225.34 22.48L225.326 22.698L225.308 22.908L225.286 23.108L225.246 23.31L225.199 23.488L225.147 23.666L225.096 23.822L225.034 23.97L224.957 24.116L224.873 24.242L224.778 24.366L224.684 24.482L224.472 24.674L224.216 24.822L223.942 24.924L223.785 24.968L223.628 24.986L223.457 25.008L205.501 25.01L205.499 28.536L205.522 29.028L205.562 29.508L205.647 29.964L205.755 30.392L205.902 30.802L206.07 31.19L206.281 31.548L206.515 31.89L206.789 32.208L207.085 32.51L207.425 32.782L207.794 33.036L208.185 33.268L208.616 33.478L209.083 33.666L209.568 33.836L210.098 33.968L210.66 34.098L211.248 34.192L211.873 34.264L212.529 34.326L213.216 34.356L213.935 34.37H214.199L214.465 34.356H214.717L215.224 34.34L215.466 34.316L215.7 34.308L216.163 34.264L216.387 34.246L216.606 34.21L217.241 34.116L217.646 34.032L218.026 33.952L218.206 33.898L218.387 33.852L218.566 33.804L218.731 33.742L218.987 33.656L219.082 33.612L219.185 33.58L219.293 33.532L219.41 33.488L219.527 33.434L219.652 33.372L219.779 33.318L220.053 33.176L220.2 33.1L220.349 33.014L220.506 32.93L220.667 32.836L220.834 32.742L221.005 32.64L221.185 32.532L221.364 32.416L221.553 32.292L221.956 32.038L222.16 31.904L222.371 31.756L222.496 31.64L222.631 31.524L222.748 31.422L222.877 31.316L222.99 31.222L223.106 31.136L223.318 30.968L223.417 30.896L223.519 30.82L223.614 30.758L223.701 30.696L223.785 30.642L223.87 30.602L223.942 30.548L224.091 30.486L224.154 30.454L224.279 30.414L224.333 30.4L224.377 30.392H224.545L224.661 30.4L224.768 30.414L224.957 30.454L225.052 30.486L225.137 30.516L225.223 30.562L225.294 30.602L225.356 30.656L225.487 30.78L225.538 30.842L225.59 30.918L225.677 31.084L225.707 31.176L225.739 31.284L225.783 31.494L225.793 31.61L225.801 31.734V31.998L225.783 32.136L225.771 32.27L225.739 32.394L225.707 32.532L225.666 32.672L225.614 32.804L225.55 32.93L225.487 33.068L225.411 33.206L225.246 33.478L225.147 33.604L225.042 33.742L224.808 34.014L224.395 34.424L223.92 34.83L223.741 34.976L223.153 35.396L222.832 35.596L222.496 35.798L222.16 35.976L221.799 36.154L221.426 36.31L221.046 36.466L220.655 36.614L220.246 36.752L219.823 36.876L219.388 36.992L218.943 37.108L218.49 37.202L218.026 37.288L217.537 37.372L217.043 37.434L216.536 37.496L216.014 37.536L215.488 37.582L214.389 37.622H213.818L212.833 37.612L211.895 37.56L210.996 37.474L210.138 37.35L209.335 37.202L208.567 37.016L207.834 36.792L207.161 36.534L206.515 36.248L205.92 35.922L205.373 35.566L204.865 35.168L204.404 34.744L203.977 34.286L203.608 33.782L203.272 33.256L202.984 32.688L202.742 32.092L202.538 31.454L202.381 30.788L202.279 30.088L202.202 29.344L202.18 28.568V19.402L202.194 19.144L202.202 18.868L202.224 18.618L202.256 18.354L202.297 18.092L202.404 17.588L202.476 17.346L202.553 17.096L202.637 16.856L202.732 16.616L202.835 16.384L203.068 15.92L203.207 15.692L203.342 15.468L203.491 15.25L203.662 15.04L203.82 14.832L203.999 14.622L204.382 14.22L204.591 14.02L204.865 13.76L205.153 13.516L205.459 13.274L205.763 13.056L206.092 12.846L206.442 12.646L206.789 12.458L207.161 12.28L207.53 12.124L207.921 11.964L208.324 11.83L209.17 11.576L209.601 11.472L210.054 11.374L210.511 11.294L210.984 11.232L211.474 11.166L211.967 11.116L212.465 11.084L212.983 11.054L213.512 11.04L214.052 11.032L215.021 11.054L215.942 11.116ZM211.84 14.328L211.019 14.46L210.225 14.662L209.466 14.912L208.724 15.22L208.027 15.576L207.341 16.08L206.77 16.602L206.311 17.168L205.953 17.756L205.701 18.376L205.554 19.028L205.499 19.71V21.642H221.988L221.817 19.68L221.302 18.012L220.443 16.646L219.239 15.584L217.698 14.818L215.794 14.368L213.553 14.212L212.686 14.242L211.84 14.328Z" fill="#131313"/>
</svg>
