<svg width="50" height="50" viewBox="0 0 50 50" fill="none" xmlns="http://www.w3.org/2000/svg">
<path d="M25 4.1665C13.4937 4.1665 4.16666 13.4936 4.16666 24.9998C4.16666 34.2571 10.2094 42.0946 18.5625 44.8082H31.4375C39.7906 42.0946 45.8333 34.2571 45.8333 24.9998C45.8333 13.4936 36.5062 4.1665 25 4.1665Z" fill="url(#paint0_linear_85:125)"/>
<path opacity="0.05" d="M31.2604 43.7458L31.25 37.7062C31.25 36.7281 31.0208 35.7729 30.5812 34.9072C36.4573 33.727 39.3167 30.2531 39.3167 24.3062C39.3167 21.9572 38.624 19.8833 37.2583 18.1395C37.3625 17.8093 37.4396 17.4676 37.4875 17.1176C37.6833 15.6916 37.4635 14.7593 37.2864 14.0093L37.2583 13.8885C37.0646 13.0593 36.8323 12.4676 36.8229 12.4426L36.7073 12.1489L36.5917 11.8551L36.2771 11.8218L35.9614 11.7885C35.9614 11.7885 35.7542 11.7666 35.4396 11.7666C35.0031 11.7666 34.3562 11.8104 33.7448 12.0176L33.5406 12.0864C32.7698 12.3458 32.0417 12.5916 31.0229 13.1999C30.725 13.3781 30.3989 13.5812 30.05 13.8083C28.4729 13.4176 26.776 13.2187 25 13.2187C23.2062 13.2187 21.4948 13.4187 19.9073 13.8135C19.5542 13.5843 19.226 13.3791 18.926 13.1999C17.9073 12.5916 17.1792 12.3468 16.4083 12.0864L16.2042 12.0176C15.5948 11.8104 14.9469 11.7666 14.5104 11.7666C14.1958 11.7666 13.9885 11.7885 13.9885 11.7885L13.6739 11.8218L13.3614 11.8541L13.2448 12.1468L13.1271 12.4416C13.1167 12.4687 12.8844 13.0604 12.6906 13.8906L12.6625 14.0104C12.4854 14.7593 12.2656 15.6926 12.4614 17.1176C12.5114 17.4781 12.5917 17.8312 12.701 18.1708C11.3625 19.9062 10.6844 21.9687 10.6844 24.3062C10.6844 30.2385 13.5469 33.7104 19.4312 34.8999C19.2292 35.3041 19.0719 35.7312 18.9604 36.1749C18.7552 36.2447 18.5667 36.2916 18.4 36.3176C18.1521 36.3551 17.8927 36.3739 17.6302 36.3739C16.9156 36.3739 16.3542 36.2343 16.1354 36.1041C15.8094 35.9104 15.2271 35.3468 14.6625 34.5229C14.1802 33.8197 13.4281 32.8999 12.5875 32.5156C11.8604 32.1833 11.0906 31.9926 10.4739 31.9926C10.3302 31.9926 10.1979 32.0031 10.0823 32.0218C9.54374 32.1072 9.09374 32.4031 8.84895 32.8343C8.63749 33.2062 8.60416 33.6395 8.75728 34.0229C8.98541 34.5937 9.64374 35.0489 10.1562 35.3301C10.4083 35.4687 10.9531 35.9749 11.2708 36.4854C11.5094 36.8687 11.6198 37.1416 11.7729 37.5187C11.8635 37.7426 11.9635 37.9864 12.0989 38.2812C12.5885 39.3458 14.1167 40.2854 14.2896 40.3885C15.1292 40.8916 16.5406 41.0531 17.5781 41.0999L17.7062 41.1031H17.7073C17.9573 41.1031 18.301 41.0791 18.7531 41.0291V43.751C18.7552 44.302 18.1937 44.427 17.451 44.4156L18.0208 44.6072C20.2031 45.3874 22.5469 45.8333 25 45.8333C27.4531 45.8333 29.7969 45.3874 31.9823 44.6083L32.7146 44.3354C31.9739 44.3104 31.2667 44.1895 31.2604 43.7458Z" fill="black"/>
<path opacity="0.07" d="M32.0635 44.5803C31.6406 44.6293 30.7292 44.4668 30.7292 43.7522V37.7064C30.7292 36.5668 30.3875 35.4657 29.7542 34.5272C35.9156 33.5303 38.7948 30.2636 38.7948 24.3063C38.7948 21.9761 38.0802 19.9376 36.6708 18.2418C36.8135 17.8616 36.9135 17.4605 36.9708 17.047C37.1531 15.7178 36.9542 14.8741 36.7792 14.1293L36.751 14.0084C36.5656 13.2157 36.3469 12.6574 36.3375 12.6345L36.2219 12.3407L35.9062 12.3074C35.9062 12.3074 35.7208 12.2876 35.4385 12.2876C35.0417 12.2876 34.4552 12.3261 33.9115 12.5116L33.7073 12.5803C32.9635 12.8313 32.2604 13.0678 31.2896 13.647C30.9437 13.8532 30.5583 14.0959 30.1427 14.3699C28.5458 13.9522 26.8177 13.7397 25 13.7397C23.1646 13.7397 21.4219 13.9532 19.8135 14.3751C19.3937 14.0991 19.0062 13.8553 18.6583 13.647C17.6875 13.0678 16.9844 12.8303 16.2406 12.5803L16.0365 12.5116C15.4937 12.3272 14.9062 12.2876 14.5094 12.2876C14.2271 12.2876 14.0417 12.3074 14.0417 12.3074L13.7271 12.3407L13.6094 12.6355C13.6 12.6584 13.3812 13.2168 13.1958 14.0095L13.1677 14.1303C12.9917 14.8751 12.7927 15.7178 12.976 17.047C13.0344 17.4709 13.1385 17.8813 13.2865 18.2699C11.9042 19.9574 11.2042 21.9855 11.2042 24.3063C11.2042 30.247 14.0854 33.5126 20.2521 34.5209C19.8406 35.1355 19.5531 35.8282 19.4052 36.5668C19.0615 36.7022 18.75 36.7918 18.4771 36.8334C18.2031 36.8751 17.9177 36.8959 17.6292 36.8959C16.9104 36.8959 16.2198 36.7616 15.8687 36.5532C15.4104 36.2813 14.7677 35.6011 14.2312 34.8188C13.8667 34.2876 13.1406 33.3428 12.3687 32.9907C11.7073 32.6886 11.0167 32.5147 10.4719 32.5147C10.3573 32.5147 10.2531 32.523 10.1615 32.5376C9.78021 32.598 9.46562 32.8001 9.29896 33.0939C9.16562 33.3272 9.14375 33.597 9.2375 33.8314C9.42396 34.298 10.1146 34.7168 10.4031 34.8751C10.7521 35.0668 11.3604 35.6501 11.7094 36.2126C11.9708 36.6334 12.0948 36.9386 12.2521 37.3241C12.3406 37.5418 12.4375 37.7793 12.5687 38.0657C12.9135 38.8147 13.9781 39.5991 14.5531 39.9439C15.3385 40.4147 16.7969 40.5459 17.5969 40.5814L17.7125 40.5834C18.024 40.5834 18.5458 40.5366 19.2698 40.4428V43.7522C19.2698 44.5636 18.2375 44.5959 17.9844 44.5959C17.9521 44.5959 18.5083 44.7876 18.5083 44.7876C20.5531 45.4584 22.7312 45.8334 25 45.8334C27.2687 45.8334 29.4469 45.4584 31.4906 44.7886C31.4906 44.7886 32.0958 44.5761 32.0635 44.5803Z" fill="black"/>
<path d="M38.275 24.3061C38.275 21.8999 37.4604 19.9041 36.0698 18.3395C36.2208 18.0009 36.3781 17.5468 36.4563 16.9759C36.6354 15.6739 36.424 14.8926 36.2448 14.128C36.0656 13.3634 35.8542 12.8259 35.8542 12.8259C35.8542 12.8259 34.8938 12.728 34.0802 13.0051C33.2667 13.2822 32.5667 13.4936 31.5573 14.0957C31.0854 14.377 30.6104 14.6853 30.2344 14.9353C28.6271 14.4895 26.8594 14.2603 25 14.2603C23.124 14.2603 21.3406 14.4905 19.7219 14.9395C19.3448 14.6884 18.8667 14.378 18.3917 14.0947C17.3823 13.4926 16.6823 13.2811 15.8688 13.0041C15.0552 12.727 14.0948 12.8249 14.0948 12.8249C14.0948 12.8249 13.8833 13.3624 13.7042 14.127C13.525 14.8916 13.3135 15.6728 13.4927 16.9749C13.5729 17.5603 13.7354 18.0228 13.8906 18.3634C12.526 19.9186 11.7261 21.902 11.7261 24.3051C11.7261 30.5374 15.0927 33.3822 21.2271 34.1332C20.5115 34.8895 20.0313 35.8582 19.8698 36.9363C19.4667 37.1134 19.0021 37.2801 18.5552 37.3468C17.4052 37.5207 16.1896 37.3468 15.6042 36.9999C15.0188 36.653 14.324 35.8718 13.8031 35.1113C13.3636 34.4697 12.7292 33.7249 12.1542 33.4624C11.3948 33.1155 10.6563 32.9853 10.2448 33.0499C9.8323 33.1155 9.63751 33.4186 9.72397 33.6363C9.81043 33.853 10.2229 34.1791 10.6573 34.4176C11.0917 34.6561 11.7646 35.3072 12.1552 35.9363C12.5906 36.6384 12.676 37.0436 13.0448 37.8457C13.3042 38.4103 14.1917 39.1155 14.824 39.4947C15.3667 39.8207 16.4511 40.0061 17.624 40.0593C18.0292 40.078 18.9865 39.9593 19.7938 39.8447V43.7509C19.7938 44.4166 19.1844 44.9228 18.5531 44.8061C20.5792 45.4874 22.7427 45.8332 25 45.8332C27.2563 45.8332 29.4198 45.4874 31.4479 44.8082C30.8177 44.9238 30.2083 44.4176 30.2083 43.752V37.7061C30.2083 36.3218 29.6594 35.0707 28.7781 34.1384C34.8677 33.4072 38.275 30.6301 38.275 24.3061ZM11.7073 34.0905C11.5469 34.0082 11.4604 33.8561 11.5146 33.7488C11.5688 33.6416 11.7438 33.6218 11.9042 33.7041C12.0646 33.7863 12.151 33.9384 12.0969 34.0457C12.0427 34.153 11.8677 34.1728 11.7073 34.0905ZM12.9698 34.877C12.8854 34.9686 12.7042 34.9395 12.5646 34.8124C12.425 34.6853 12.3802 34.5072 12.4646 34.4155C12.549 34.3239 12.7302 34.353 12.8698 34.4801C13.0094 34.6072 13.0542 34.7853 12.9698 34.877ZM13.7552 36.1791C13.649 36.2541 13.4688 36.1843 13.3531 36.0228C13.2375 35.8613 13.2302 35.6686 13.3365 35.5936C13.4427 35.5186 13.6229 35.5884 13.7386 35.7499C13.8531 35.9113 13.8615 36.1041 13.7552 36.1791ZM14.8833 37.1593C14.8115 37.2759 14.6073 37.2811 14.4281 37.1718C14.249 37.0624 14.1615 36.8791 14.2333 36.7624C14.3052 36.6457 14.5094 36.6405 14.6885 36.7499C14.8677 36.8593 14.9552 37.0426 14.8833 37.1593ZM15.95 38.1186C15.7281 38.0916 15.5635 37.953 15.5823 37.8093C15.6 37.6655 15.7948 37.5718 16.0156 37.5988C16.2375 37.6259 16.4021 37.7645 16.3833 37.9082C16.3656 38.0509 16.1719 38.1457 15.95 38.1186ZM17.6698 38.3676C17.4333 38.3541 17.249 38.2186 17.2583 38.0666C17.2677 37.9145 17.4667 37.8009 17.7031 37.8145C17.9396 37.828 18.124 37.9634 18.1146 38.1155C18.1052 38.2686 17.9063 38.3811 17.6698 38.3676ZM19.2927 38.2051C19.0406 38.2051 18.8365 38.0738 18.8365 37.9124C18.8365 37.7509 19.0406 37.6197 19.2927 37.6197C19.5448 37.6197 19.749 37.7509 19.749 37.9124C19.749 38.0738 19.5438 38.2051 19.2927 38.2051Z" fill="white"/>
<defs>
<linearGradient id="paint0_linear_85:125" x1="4.16666" y1="24.4873" x2="45.8333" y2="24.4873" gradientUnits="userSpaceOnUse">
<stop stop-color="#4C4C4C"/>
<stop offset="1" stop-color="#343434"/>
</linearGradient>
</defs>
</svg>
