<svg width="25" height="25" viewBox="0 0 25 25" fill="none" xmlns="http://www.w3.org/2000/svg">
<path d="M12.5 2.08331C6.74687 2.08331 2.08333 6.74685 2.08333 12.5C2.08333 17.1286 5.10468 21.0474 9.28125 22.4041H15.7187C19.8953 21.0474 22.9167 17.1286 22.9167 12.5C22.9167 6.74685 18.2531 2.08331 12.5 2.08331Z" fill="url(#paint0_linear_8:30)"/>
<path opacity="0.05" d="M15.6302 21.8729L15.625 18.8531C15.625 18.364 15.5104 17.8864 15.2906 17.4536C18.2286 16.8635 19.6583 15.1265 19.6583 12.1531C19.6583 10.9786 19.312 9.94163 18.6292 9.06976C18.6812 8.90466 18.7198 8.73382 18.7437 8.55882C18.8417 7.8458 18.7318 7.37966 18.6432 7.00466L18.6292 6.94424C18.5323 6.52966 18.4161 6.23382 18.4115 6.22132L18.3536 6.07445L18.2958 5.92757L18.1385 5.91091L17.9807 5.89424C17.9807 5.89424 17.8771 5.8833 17.7198 5.8833C17.5016 5.8833 17.1781 5.90518 16.8724 6.00882L16.7703 6.0432C16.3849 6.17288 16.0208 6.2958 15.5115 6.59997C15.3625 6.68903 15.1995 6.79059 15.025 6.90413C14.2365 6.70882 13.388 6.60934 12.5 6.60934C11.6031 6.60934 10.7474 6.70934 9.95364 6.90674C9.77708 6.79216 9.61302 6.68955 9.46302 6.59997C8.95364 6.2958 8.58958 6.17341 8.20416 6.0432L8.10208 6.00882C7.79739 5.90518 7.47343 5.8833 7.2552 5.8833C7.09791 5.8833 6.99427 5.89424 6.99427 5.89424L6.83697 5.91091L6.68072 5.92705L6.62239 6.07341L6.56354 6.2208C6.55833 6.23434 6.44218 6.53018 6.34531 6.94528L6.33125 7.00518C6.2427 7.37966 6.13281 7.84632 6.23072 8.55882C6.25572 8.73903 6.29583 8.91559 6.35052 9.08538C5.68125 9.95309 5.34218 10.9843 5.34218 12.1531C5.34218 15.1192 6.77343 16.8552 9.71562 17.45C9.61458 17.6521 9.53593 17.8656 9.4802 18.0875C9.3776 18.1224 9.28333 18.1458 9.19999 18.1588C9.07604 18.1776 8.94635 18.1869 8.8151 18.1869C8.45781 18.1869 8.17708 18.1172 8.0677 18.0521C7.90468 17.9552 7.61354 17.6734 7.33125 17.2614C7.0901 16.9099 6.71406 16.45 6.29375 16.2578C5.9302 16.0916 5.54531 15.9963 5.23697 15.9963C5.1651 15.9963 5.09895 16.0015 5.04114 16.0109C4.77187 16.0536 4.54687 16.2015 4.42447 16.4172C4.31875 16.6031 4.30208 16.8198 4.37864 17.0114C4.4927 17.2968 4.82187 17.5244 5.07812 17.6651C5.20416 17.7343 5.47656 17.9875 5.63541 18.2427C5.75468 18.4343 5.80989 18.5708 5.88645 18.7593C5.93177 18.8713 5.98177 18.9932 6.04947 19.1406C6.29427 19.6729 7.05833 20.1427 7.14479 20.1942C7.56458 20.4458 8.27031 20.5265 8.78906 20.55L8.85312 20.5515H8.85364C8.97864 20.5515 9.15052 20.5396 9.37656 20.5146V21.8755C9.3776 22.151 9.09687 22.2135 8.72552 22.2078L9.01041 22.3036C10.1016 22.6937 11.2734 22.9166 12.5 22.9166C13.7266 22.9166 14.8984 22.6937 15.9911 22.3041L16.3573 22.1677C15.987 22.1552 15.6333 22.0948 15.6302 21.8729Z" fill="black"/>
<path opacity="0.07" d="M16.0318 22.2901C15.8203 22.3146 15.3646 22.2333 15.3646 21.876V18.8531C15.3646 18.2833 15.1937 17.7328 14.8771 17.2635C17.9578 16.7651 19.3974 15.1318 19.3974 12.1531C19.3974 10.988 19.0401 9.96874 18.3354 9.12082C18.4068 8.93072 18.4568 8.7302 18.4854 8.52343C18.5766 7.85884 18.4771 7.43697 18.3896 7.06457L18.3755 7.00415C18.2828 6.6078 18.1734 6.32863 18.1687 6.31718L18.1109 6.1703L17.9531 6.15363C17.9531 6.15363 17.8604 6.14374 17.7193 6.14374C17.5208 6.14374 17.2276 6.16301 16.9557 6.25572L16.8536 6.29009C16.4818 6.41561 16.1302 6.53384 15.6448 6.82343C15.4719 6.92655 15.2792 7.0479 15.0714 7.18488C14.2729 6.97603 13.4089 6.86978 12.5 6.86978C11.5823 6.86978 10.7109 6.97655 9.90677 7.18749C9.69687 7.04947 9.50312 6.92759 9.32917 6.82343C8.84375 6.53384 8.49219 6.41509 8.12031 6.29009L8.01823 6.25572C7.74687 6.16353 7.45312 6.14374 7.25469 6.14374C7.11354 6.14374 7.02083 6.15363 7.02083 6.15363L6.86354 6.1703L6.80469 6.3177C6.8 6.32915 6.69062 6.60832 6.59792 7.00468L6.58385 7.06509C6.49583 7.43749 6.39635 7.85884 6.48802 8.52343C6.51719 8.7354 6.56927 8.94061 6.64323 9.13488C5.95208 9.97863 5.60208 10.9927 5.60208 12.1531C5.60208 15.1234 7.04271 16.7562 10.126 17.2604C9.92031 17.5677 9.77656 17.9141 9.7026 18.2833C9.53073 18.351 9.375 18.3958 9.23854 18.4167C9.10156 18.4375 8.95885 18.4479 8.81458 18.4479C8.45521 18.4479 8.10989 18.3807 7.93437 18.2766C7.70521 18.1406 7.38385 17.8005 7.11562 17.4094C6.93333 17.1437 6.57031 16.6713 6.18437 16.4953C5.85364 16.3443 5.50833 16.2573 5.23594 16.2573C5.17864 16.2573 5.12656 16.2614 5.08073 16.2687C4.8901 16.2989 4.73281 16.4 4.64948 16.5469C4.58281 16.6635 4.57187 16.7984 4.61875 16.9156C4.71198 17.1489 5.05729 17.3583 5.20156 17.4375C5.37604 17.5333 5.68021 17.825 5.85469 18.1062C5.98542 18.3167 6.04739 18.4693 6.12604 18.662C6.17031 18.7708 6.21875 18.8896 6.28437 19.0328C6.45677 19.4073 6.98906 19.7995 7.27656 19.9719C7.66927 20.2073 8.39844 20.2729 8.79844 20.2906L8.85625 20.2917C9.01198 20.2917 9.27292 20.2682 9.63489 20.2213V21.876C9.63489 22.2818 9.11875 22.2979 8.99219 22.2979C8.97604 22.2979 9.25417 22.3937 9.25417 22.3937C10.2766 22.7292 11.3656 22.9167 12.5 22.9167C13.6344 22.9167 14.7234 22.7292 15.7453 22.3943C15.7453 22.3943 16.0479 22.288 16.0318 22.2901Z" fill="black"/>
<path d="M19.1375 12.1531C19.1375 10.95 18.7302 9.95209 18.0349 9.1698C18.1104 9.00053 18.1891 8.77345 18.2281 8.48803C18.3177 7.83699 18.212 7.44636 18.1224 7.06407C18.0328 6.68178 17.9271 6.41303 17.9271 6.41303C17.9271 6.41303 17.4469 6.36407 17.0401 6.50261C16.6333 6.64115 16.2833 6.74688 15.7787 7.04793C15.5427 7.18855 15.3052 7.34272 15.1172 7.46772C14.3135 7.2448 13.4297 7.13022 12.5 7.13022C11.562 7.13022 10.6703 7.24532 9.86094 7.4698C9.6724 7.34428 9.43334 7.18907 9.19584 7.0474C8.69115 6.74636 8.34115 6.64063 7.93438 6.50209C7.52761 6.36355 7.0474 6.41251 7.0474 6.41251C7.0474 6.41251 6.94167 6.68126 6.85209 7.06355C6.7625 7.44584 6.65677 7.83647 6.74636 8.48751C6.78646 8.78022 6.86771 9.01147 6.94532 9.18178C6.26302 9.95938 5.86303 10.9511 5.86303 12.1526C5.86303 15.2688 7.54636 16.6912 10.6135 17.0667C10.2557 17.4448 10.0156 17.9292 9.9349 18.4682C9.73334 18.5568 9.50105 18.6401 9.27761 18.6734C8.70261 18.7604 8.0948 18.6734 7.80209 18.5C7.50938 18.3266 7.16198 17.9359 6.90157 17.5557C6.68178 17.2349 6.36459 16.8625 6.07709 16.7313C5.6974 16.5578 5.32813 16.4927 5.1224 16.525C4.91615 16.5578 4.81875 16.7094 4.86198 16.8182C4.90521 16.9266 5.11146 17.0896 5.32865 17.2089C5.54584 17.3281 5.8823 17.6537 6.07761 17.9682C6.29532 18.3193 6.33802 18.5219 6.5224 18.9229C6.65209 19.2052 7.09584 19.5578 7.41198 19.7474C7.68334 19.9104 8.22553 20.0031 8.81198 20.0297C9.01459 20.0391 9.49323 19.9797 9.89688 19.9224V21.8755C9.89688 22.2083 9.59219 22.4615 9.27657 22.4031C10.2896 22.7438 11.3714 22.9167 12.5 22.9167C13.6281 22.9167 14.7099 22.7438 15.724 22.4042C15.4089 22.462 15.1042 22.2089 15.1042 21.876V18.8531C15.1042 18.1609 14.8297 17.5354 14.3891 17.0693C17.4339 16.7037 19.1375 15.3151 19.1375 12.1531ZM5.85365 17.0453C5.77344 17.0042 5.73021 16.9281 5.7573 16.8745C5.78438 16.8208 5.87188 16.8109 5.95209 16.8521C6.0323 16.8932 6.07552 16.9693 6.04844 17.0229C6.02136 17.0766 5.93386 17.0865 5.85365 17.0453ZM6.4849 17.4385C6.44271 17.4844 6.35209 17.4698 6.2823 17.4063C6.2125 17.3427 6.19011 17.2537 6.2323 17.2078C6.27448 17.162 6.36511 17.1766 6.4349 17.2401C6.50469 17.3037 6.52709 17.3927 6.4849 17.4385ZM6.87761 18.0896C6.82448 18.1271 6.73438 18.0922 6.67657 18.0115C6.61875 17.9307 6.61511 17.8344 6.66823 17.7969C6.72136 17.7594 6.81146 17.7943 6.86928 17.875C6.92657 17.9557 6.93073 18.0521 6.87761 18.0896ZM7.44167 18.5797C7.40573 18.638 7.30365 18.6406 7.21407 18.5859C7.12448 18.5313 7.08073 18.4396 7.11667 18.3813C7.15261 18.3229 7.25469 18.3203 7.34427 18.375C7.43386 18.4297 7.47761 18.5214 7.44167 18.5797ZM7.975 19.0594C7.86407 19.0458 7.78177 18.9766 7.79115 18.9047C7.8 18.8328 7.8974 18.7859 8.00782 18.7995C8.11875 18.813 8.20105 18.8823 8.19167 18.9542C8.18282 19.0255 8.08594 19.0729 7.975 19.0594ZM8.8349 19.1839C8.71667 19.1771 8.62448 19.1094 8.62917 19.0333C8.63386 18.9573 8.73334 18.9005 8.85157 18.9073C8.9698 18.9141 9.06198 18.9818 9.0573 19.0578C9.05261 19.1344 8.95313 19.1906 8.8349 19.1839ZM9.64636 19.1026C9.52032 19.1026 9.41823 19.037 9.41823 18.9563C9.41823 18.8755 9.52032 18.8099 9.64636 18.8099C9.7724 18.8099 9.87448 18.8755 9.87448 18.9563C9.87448 19.037 9.77188 19.1026 9.64636 19.1026Z" fill="white"/>
<defs>
<linearGradient id="paint0_linear_8:30" x1="2.08333" y1="12.2437" x2="22.9167" y2="12.2437" gradientUnits="userSpaceOnUse">
<stop stop-color="#4C4C4C"/>
<stop offset="1" stop-color="#343434"/>
</linearGradient>
</defs>
</svg>
