<svg width="25" height="25" viewBox="0 0 25 25" fill="none" xmlns="http://www.w3.org/2000/svg">
<path fill-rule="evenodd" clip-rule="evenodd" d="M25 3.125C25 1.40024 23.5998 0 21.875 0H3.125C1.40024 0 0 1.40024 0 3.125V21.875C0 23.5998 1.40024 25 3.125 25H21.875C23.5998 25 25 23.5998 25 21.875V3.125Z" fill="#2867B2"/>
<path d="M7.16859 8.72345H2.98109V21.3193H7.16859V8.72345Z" fill="white"/>
<path d="M5.10312 2.65045C3.67046 2.65045 2.73438 3.59235 2.73438 4.82687C2.73438 6.03546 3.64199 7.00333 5.0477 7.00333H5.07476C6.53486 7.00333 7.4437 6.03546 7.4437 4.82687C7.4166 3.59235 6.53496 2.65045 5.10312 2.65045Z" fill="white"/>
<path d="M17.4452 8.42743C15.224 8.42743 14.2291 9.64896 13.672 10.507V8.72362H9.48553C9.54105 9.90512 9.48553 21.3194 9.48553 21.3194H13.6719V14.285C13.6719 13.9085 13.699 13.5321 13.8099 13.263C14.1121 12.511 14.8014 11.7321 15.958 11.7321C17.4723 11.7321 18.0789 12.8876 18.0789 14.5801V21.3194H22.2655V14.0962C22.2655 10.2272 20.1998 8.42743 17.4452 8.42743Z" fill="white"/>
</svg>
