<svg width="45" height="45" viewBox="0 0 45 45" fill="none" xmlns="http://www.w3.org/2000/svg">
<path fill-rule="evenodd" clip-rule="evenodd" d="M45 5.625C45 2.52044 42.4796 0 39.375 0H5.625C2.52044 0 0 2.52044 0 5.625V39.375C0 42.4796 2.52044 45 5.625 45H39.375C42.4796 45 45 42.4796 45 39.375V5.625Z" fill="#2867B2"/>
<path d="M12.9035 15.7021H5.36597V38.3746H12.9035V15.7021Z" fill="white"/>
<path d="M9.18563 4.77075C6.60683 4.77075 4.92188 6.46616 4.92188 8.6883C4.92188 10.8638 6.55559 12.6059 9.08587 12.6059H9.13456C11.7628 12.6059 13.3987 10.8638 13.3987 8.6883C13.3499 6.46616 11.7629 4.77075 9.18563 4.77075Z" fill="white"/>
<path d="M31.4014 15.1694C27.4032 15.1694 25.6124 17.3682 24.6095 18.9126V15.7026H17.074C17.1739 17.8293 17.074 38.3749 17.074 38.3749H24.6094V25.7131C24.6094 25.0353 24.6581 24.3578 24.8579 23.8734C25.4018 22.5199 26.6425 21.1179 28.7245 21.1179C31.4501 21.1179 32.5421 23.1977 32.5421 26.2443V38.3749H40.0779V25.3733C40.0779 18.4091 36.3597 15.1694 31.4014 15.1694Z" fill="white"/>
</svg>
