<svg width="28" height="52" viewBox="0 0 28 52" fill="none" xmlns="http://www.w3.org/2000/svg">
<path d="M19.984 40.312C19.024 40.312 17.976 40.168 16.84 39.88C15.72 39.592 14.832 39.216 14.176 38.752V35.488C14.176 35.216 14.32 35.08 14.608 35.08C14.832 35.08 15.008 35.168 15.136 35.344C15.264 35.504 15.384 35.808 15.496 36.256L15.856 37.744C16.272 38.048 16.848 38.288 17.584 38.464C18.32 38.64 19.048 38.728 19.768 38.728C20.888 38.728 21.824 38.528 22.576 38.128C23.344 37.728 23.728 37.08 23.728 36.184C23.728 35.592 23.584 35.096 23.296 34.696C23.024 34.296 22.584 33.928 21.976 33.592C21.384 33.256 20.504 32.848 19.336 32.368C17.688 31.68 16.424 30.96 15.544 30.208C14.68 29.44 14.248 28.456 14.248 27.256C14.248 25.848 14.792 24.792 15.88 24.088C16.968 23.368 18.296 23.008 19.864 23.008C20.872 23.008 21.864 23.168 22.84 23.488C23.832 23.792 24.648 24.2 25.288 24.712V27.808C25.288 27.92 25.248 28.016 25.168 28.096C25.104 28.176 25.008 28.216 24.88 28.216C24.656 28.216 24.472 28.136 24.328 27.976C24.2 27.8 24.08 27.48 23.968 27.016L23.608 25.552C23.176 25.248 22.648 25.016 22.024 24.856C21.416 24.68 20.752 24.592 20.032 24.592C19.056 24.592 18.248 24.792 17.608 25.192C16.984 25.576 16.672 26.168 16.672 26.968C16.672 27.496 16.824 27.952 17.128 28.336C17.448 28.704 17.88 29.04 18.424 29.344C18.968 29.632 19.784 30.016 20.872 30.496L21.376 30.712C22.464 31.176 23.344 31.632 24.016 32.08C24.688 32.528 25.208 33.064 25.576 33.688C25.96 34.296 26.152 35.048 26.152 35.944C26.152 37.416 25.576 38.512 24.424 39.232C23.272 39.952 21.792 40.312 19.984 40.312Z" fill="white"/>
<path d="M1.056 28C0.896 28 0.776 27.944 0.696 27.832C0.616 27.72 0.576 27.576 0.576 27.4C0.576 27.128 0.672 26.92 0.864 26.776C1.056 26.632 1.32 26.56 1.656 26.56H2.28L4.992 12.88L4.32 12.76C3.952 12.68 3.68 12.568 3.504 12.424C3.328 12.28 3.24 12.08 3.24 11.824C3.24 11.488 3.368 11.32 3.624 11.32H8.472L12.048 23.392C12.176 23.856 12.288 24.408 12.384 25.048C12.48 25.688 12.536 26.104 12.552 26.296H12.672C12.688 26.104 12.736 25.688 12.816 25.048C12.912 24.408 13.024 23.856 13.152 23.392L16.488 11.32H21.336C21.448 11.32 21.544 11.36 21.624 11.44C21.704 11.52 21.744 11.648 21.744 11.824C21.744 12.08 21.656 12.288 21.48 12.448C21.304 12.592 21.024 12.696 20.64 12.76L19.992 12.88L22.968 26.56L23.952 26.824C24.224 26.888 24.416 26.984 24.528 27.112C24.656 27.224 24.72 27.376 24.72 27.568C24.72 27.856 24.616 28 24.408 28H19.032C18.872 28 18.752 27.944 18.672 27.832C18.592 27.72 18.552 27.576 18.552 27.4C18.552 27.128 18.648 26.92 18.84 26.776C19.032 26.632 19.296 26.56 19.632 26.56H20.616L18.072 14.656C18.008 14.368 17.952 14.048 17.904 13.696C17.872 13.328 17.856 13.088 17.856 12.976H17.736C17.72 13.088 17.672 13.328 17.592 13.696C17.528 14.064 17.456 14.384 17.376 14.656L13.704 28H10.992L7.032 14.656C6.936 14.368 6.856 14.048 6.792 13.696C6.728 13.328 6.688 13.088 6.672 12.976H6.552C6.552 13.088 6.536 13.328 6.504 13.696C6.472 14.048 6.424 14.368 6.36 14.656L4.08 26.584L5.424 26.92C5.712 26.984 5.92 27.072 6.048 27.184C6.176 27.296 6.24 27.44 6.24 27.616C6.24 27.872 6.136 28 5.928 28H1.056Z" fill="#F1F2F2"/>
</svg>
